<svg xmlns="http://www.w3.org/2000/svg" width="1200" height="360" viewBox="0 0 1200 360" role="img"><title>Engineering Capability System</title><desc>Qualitative capability areas without fabricated scoring.</desc><style>
text{font-family:Arial,sans-serif}.bg{fill:#F8FAFC}.title{font-size:22px;font-weight:700;fill:#0F172A}.label{font-size:14px;font-weight:700;fill:#1E293B}.small{font-size:11px;fill:#64748B}
.blue{fill:#EAF2FF;stroke:#0B5FFF;stroke-width:2}.teal{fill:#E8FBF7;stroke:#00A99D;stroke-width:2}.violet{fill:#F3EEFF;stroke:#6D28D9;stroke-width:2}.navy{fill:#EEF2F7;stroke:#1D3557;stroke-width:2}.panel{fill:#fff;stroke:#D8E1EE;stroke-width:1.5}
.line{stroke:#CBD5E1;stroke-width:2;fill:none}.dash{stroke:#94A3B8;stroke-width:2;fill:none;stroke-dasharray:7 7}.db{fill:#0B5FFF}.dt{fill:#00A99D}.dv{fill:#6D28D9}
@media(prefers-color-scheme:dark){.bg{fill:#0B1120}.title,.label{fill:#F8FAFC}.small{fill:#94A3B8}.blue,.teal,.violet,.navy,.panel{fill:#111827}.line,.dash{stroke:#475569}}
</style><rect width="1200" height="360" rx="24" class="bg"/><text x="600" y="34" text-anchor="middle" class="title">Engineering Capability System</text><rect x="70" y="85" width="240" height="82" rx="15" class="blue"/><text x="190.0" y="114" text-anchor="middle" class="label">Product</text><text x="190.0" y="135" text-anchor="middle" class="small">Strategy → Delivery</text><rect x="350" y="85" width="240" height="82" rx="15" class="teal"/><text x="470.0" y="114" text-anchor="middle" class="label">Frontend</text><text x="470.0" y="135" text-anchor="middle" class="small">Experience</text><rect x="630" y="85" width="240" height="82" rx="15" class="blue"/><text x="750.0" y="114" text-anchor="middle" class="label">Backend</text><text x="750.0" y="135" text-anchor="middle" class="small">Services · APIs</text><rect x="910" y="85" width="240" height="82" rx="15" class="navy"/><text x="1030.0" y="114" text-anchor="middle" class="label">Architecture</text><text x="1030.0" y="135" text-anchor="middle" class="small">Microservices</text><rect x="70" y="205" width="240" height="82" rx="15" class="teal"/><text x="190.0" y="234" text-anchor="middle" class="label">Data</text><text x="190.0" y="255" text-anchor="middle" class="small">Analytics · Search</text><rect x="350" y="205" width="240" height="82" rx="15" class="violet"/><text x="470.0" y="234" text-anchor="middle" class="label">AI</text><text x="470.0" y="255" text-anchor="middle" class="small">Agents · RAG</text><rect x="630" y="205" width="240" height="82" rx="15" class="blue"/><text x="750.0" y="234" text-anchor="middle" class="label">Platform</text><text x="750.0" y="255" text-anchor="middle" class="small">Identity · SaaS</text><rect x="910" y="205" width="240" height="82" rx="15" class="navy"/><text x="1030.0" y="234" text-anchor="middle" class="label">Cloud</text><text x="1030.0" y="255" text-anchor="middle" class="small">DevOps · Observe</text></svg>